<svg width="65" height="65" fill="none" xmlns="http://www.w3.org/2000/svg"><path fill="#F2F2F2" d="M0 0h65v65H0z"/><g clip-path="url(#a)"><path fill="#fff" d="M-165-1354h1440V516H-165z"/><rect width="65" height="65" rx="16" fill="#F16718"/><path fill-rule="evenodd" clip-rule="evenodd" d="M21.96 22.449h21.224a1.96 1.96 0 0 1 1.959 1.96v12.08a1.96 1.96 0 0 1-1.96 1.96H21.96A1.96 1.96 0 0 1 20 36.489V24.41a1.96 1.96 0 0 1 1.96-1.96Zm5.55 20.245 2.253-2.939h5.91l2.253 2.939H27.51Z" fill="#fff"/></g><defs><clipPath id="a"><path fill="#fff" transform="translate(-165 -1354)" d="M0 0h1440v1870H0z"/></clipPath></defs></svg>